<?xml version="1.0" encoding="UTF-8" standalone="no"?>
<svg
   xmlns:dc="http://purl.org/dc/elements/1.1/"
   xmlns:cc="http://creativecommons.org/ns#"
   xmlns:rdf="http://www.w3.org/1999/02/22-rdf-syntax-ns#"
   xmlns:svg="http://www.w3.org/2000/svg"
   xmlns="http://www.w3.org/2000/svg"
   xmlns:sodipodi="http://sodipodi.sourceforge.net/DTD/sodipodi-0.dtd"
   xmlns:inkscape="http://www.inkscape.org/namespaces/inkscape"
   width="520.71368mm"
   height="574.25439mm"
   viewBox="0 0 520.71369 574.2544"
   version="1.1"
   id="svg8"
   inkscape:version="1.0.1 (3bc2e813f5, 2020-09-07)"
   sodipodi:docname="logo.svg">
  <defs
     id="defs2" />
  <sodipodi:namedview
     id="base"
     pagecolor="#ffffff"
     bordercolor="#666666"
     borderopacity="1.0"
     inkscape:pageopacity="0.0"
     inkscape:pageshadow="2"
     inkscape:zoom="0.12374369"
     inkscape:cx="1141.0886"
     inkscape:cy="1404.0895"
     inkscape:document-units="mm"
     inkscape:current-layer="layer1"
     showgrid="false"
     inkscape:window-width="1366"
     inkscape:window-height="725"
     inkscape:window-x="1366"
     inkscape:window-y="20"
     inkscape:window-maximized="1"
     fit-margin-top="0"
     fit-margin-left="0"
     fit-margin-right="0"
     fit-margin-bottom="0"
     inkscape:document-rotation="0" />
  <metadata
     id="metadata5">
    <rdf:RDF>
      <cc:Work
         rdf:about="">
        <dc:format>image/svg+xml</dc:format>
        <dc:type
           rdf:resource="http://purl.org/dc/dcmitype/StillImage" />
        <dc:title />
      </cc:Work>
    </rdf:RDF>
  </metadata>
  <g
     inkscape:label="Layer 1"
     inkscape:groupmode="layer"
     id="layer1"
     transform="translate(198.9377,173.65468)">
    <g
       id="g1082"
       transform="matrix(4.2885904,0,0,4.2885904,-571.2596,-76.519303)">
      <g
         transform="matrix(0.76059698,0,0,0.76059698,214.61503,-39.980761)"
         id="g925">
        <path
           inkscape:connector-curvature="0"
           style="opacity:1;fill:#ffffff;fill-opacity:1;stroke:none;stroke-width:0.8093437;stroke-miterlimit:4;stroke-dasharray:none"
           d="m -88.205852,22.7861 -21.388098,44.274521 c 3.46272,8.267217 10.068202,16.506677 23.337481,22.192203 -12.46172,-2.038602 -21.162491,-6.67084 -27.965381,-12.612199 L -168.02352,188.0133 c 22.02107,-9.43845 43.67359,-14.73903 64.97385,-16.36712 0.0642,-0.18255 0.12093,-0.33254 0.16371,-0.42256 0.33681,-0.70886 0.63947,-1.06472 3.761006,-4.41902 0.796091,-0.85546 1.44738,-1.6214 1.44738,-1.70207 0,-0.0807 -0.6,-0.95932 -1.333653,-1.95259 l -1.333973,-1.80586 -3.12189,-0.0817 c -1.71706,-0.0449 -3.37572,-0.12852 -3.68573,-0.18613 -1.1423,-0.21229 -2.09518,-0.9094 -2.83582,-2.07432 -0.57938,-0.91129 -0.84151,-1.76162 -0.97292,-3.15521 -0.0693,-0.73497 -0.20728,-1.4694 -0.32677,-1.73955 -0.20392,-0.46098 -0.33715,-0.59135 -1.40317,-1.37466 -0.2969,-0.21816 -0.63583,-0.58586 -0.75316,-0.81691 -0.2866,-0.56431 -0.49559,-1.62455 -0.39917,-2.02499 0.10777,-0.4476 0.47856,-1.17044 0.79417,-1.54797 l 0.26301,-0.31459 -0.51513,-0.47477 c -0.56088,-0.517 -0.8525,-1.00648 -1.06103,-1.78088 -0.19122,-0.71014 -0.0959,-1.0354 0.73522,-2.50744 0.48889,-0.86588 0.73717,-1.43031 0.73747,-1.67612 3.3e-4,-0.50689 -0.51671,-1.04661 -1.69822,-1.77223 -1.19066,-0.73122 -1.42586,-1.03232 -1.41503,-1.81066 0.015,-1.07802 0.73365,-2.11981 2.92231,-4.2361 1.67104,-1.61581 1.70528,-1.69479 1.33045,-3.06103 -0.13403,-0.48856 -0.2913,-0.94572 -0.34951,-1.01586 -0.0582,-0.0701 -0.41465,-0.22109 -0.79224,-0.33541 -0.43142,-0.13063 -0.63361,-0.24061 -0.54397,-0.29601 0.0784,-0.0485 0.11878,-0.1079 0.0894,-0.13199 -0.0294,-0.0241 -0.18124,-0.13356 -0.33734,-0.24315 l -0.28384,-0.19927 0.39468,0.0814 0.39468,0.0814 -0.42319,-0.51641 c -0.52561,-0.64143 -0.53567,-0.74599 -0.0356,-0.36457 l 0.38699,0.29537 -0.21688,-0.6971 c -0.88426,-2.84115 -0.26029,-6.20327 1.9654,-10.58817 0.37422,-0.73726 0.66216,-1.35681 0.63976,-1.3769 -0.0224,-0.0201 -0.29618,-0.1696 -0.60836,-0.3319 -0.3122,-0.1623 -0.71664,-0.41989 -0.89893,-0.57248 l -0.33157,-0.27743 0.41646,-0.0782 c 0.22913,-0.043 0.41679,-0.14181 0.41679,-0.21977 0,-0.078 -0.3364,-0.545 -0.7474,-1.03764 -1.01076,-1.21158 -2.42865,-3.37689 -2.29729,-3.50825 0.0205,-0.0205 0.65002,0.52636 1.39901,1.21512 1.41265,1.29906 2.29352,1.97943 2.4107,1.86225 0.0374,-0.0374 -0.26901,-0.77034 -0.68076,-1.62871 -1.50943,-3.14651 -1.8809,-5.39844 -1.26927,-7.69085 0.24123,-0.90412 0.93891,-2.28601 1.5656,-3.10043 0.72176,-0.937979 2.72509,-3.021586 2.77142,-2.882584 0.0214,0.06413 -0.19115,0.574457 -0.47221,1.134069 -0.70141,1.396587 -0.97709,2.268895 -0.97709,3.092105 0,0.82699 0.20655,1.72491 0.38379,1.66906 0.17758,-0.056 1.67143,-2.20199 2.92199,-4.197655 0.57711,-0.920958 1.0727,-1.674514 1.10107,-1.674514 0.0284,0 0.015,0.6384 -0.0295,1.418868 -0.0445,0.780482 -0.054,1.419191 -0.0215,1.419191 0.0326,0 0.24153,-0.347372 0.46452,-0.771745 0.22301,-0.424382 0.59633,-0.968009 0.82941,-1.208393 0.43745,-0.451149 1.24731,-1.039183 1.32212,-0.959794 0.0233,0.02473 -0.0276,0.377111 -0.11341,0.782955 -0.18307,0.866653 -0.20526,2.028304 -0.0432,2.270377 0.0984,0.14707 0.13826,0.13934 0.29152,-0.0567 0.31365,-0.401243 1.03095,-1.902969 1.35544,-2.838056 0.38275,-1.103031 0.50645,-1.268132 0.50585,-0.675315 -3.3e-4,0.429389 -0.27252,2.295148 -0.42128,2.888994 -0.0517,0.206288 0.22089,-0.01514 0.99824,-0.810508 0.5882,-0.601824 1.294897,-1.207248 1.570401,-1.345505 l 0.501039,-0.251483 -0.354637,0.482141 c -0.350676,0.476851 -0.702373,1.624383 -0.54589,1.780873 0.04451,0.04451 0.218296,-0.09636 0.386353,-0.312991 0.557721,-0.718934 1.399092,-1.403739 1.995193,-1.624218 0.244036,-0.09024 0.255262,-0.144957 -0.263014,1.267019 -0.337844,0.920418 -0.445148,1.609479 -0.250521,1.609479 0.053,0 1.00802,-0.689117 2.122055,-1.531312 1.185217,-0.895999 2.404923,-1.71625 2.940251,-1.977252 0.904532,-0.440989 3.460848,-1.373059 3.765817,-1.373059 0.119199,0 0.157615,0.189863 0.157615,0.777832 0,0.427745 0.05857,0.951296 0.130066,1.163542 0.285937,0.849083 1.829111,2.692189 2.009611,2.400126 0.04755,-0.07702 0.179366,-0.497752 0.292806,-0.935126 0.113449,-0.43738 0.243223,-0.795451 0.288323,-0.795451 0.04507,0 0.530363,0.498066 1.078327,1.10684 0.547959,0.608772 1.360431,1.40451 1.805542,1.76806 0.919687,0.75118 2.988433,1.81015 4.55582,2.33221 1.412204,0.47037 4.824448,1.3956 4.995351,1.35448 0.104192,-0.0251 0.07237,-0.2681 -0.123338,-0.94218 -0.145033,-0.4995 -0.294109,-1.0298 -0.33157,-1.1786 l -0.06824,-0.27038 0.374821,0.31107 c 0.206195,0.17122 1.265599,1.13604 2.353994,2.14384 3.399409,3.14768 4.687828,4.2834 4.812427,4.24187 0.06623,-0.0221 0.273322,-0.59832 0.460357,-1.2808 0.422147,-1.54029 0.423733,-1.53645 0.743871,2.22009 0.130378,1.52973 0.305361,3.03684 0.388915,3.34903 0.353213,1.31977 1.086237,2.18086 2.064713,2.42511 1.372956,0.34272 1.778718,0.50632 2.399165,0.96684 0.703269,0.522 1.966361,1.79515 1.966361,1.98206 0,0.10983 -0.251563,0.16329 -1.448342,0.30819 l -0.596827,0.0724 0.585615,0.6987 c 0.638078,0.7615 1.232271,1.89349 1.232419,2.34791 5.1e-5,0.15783 -0.09904,0.37213 -0.220407,0.47605 -0.407431,0.34886 -0.399976,0.88267 0.05703,3.99295 0.5909,4.02191 0.590623,4.01457 0.25917,4.06151 -0.265623,0.0376 -0.265897,0.0385 -0.265897,1.79721 0,1.11071 -0.04172,1.75215 -0.113407,1.73955 -0.06245,-0.011 -0.195339,-0.0516 -0.295371,-0.0907 -0.117247,-0.0457 -0.242141,0.022 -0.351114,0.1903 -0.09296,0.14362 -0.895391,1.97239 -1.783115,4.06407 -0.887717,2.09168 -1.844162,4.28847 -2.12558,4.88162 -1.154258,2.43284 -2.407887,4.17197 -6.046769,8.38955 -0.506514,0.58707 -0.92071,1.13318 -0.92071,1.21352 0,0.0803 0.433242,0.51512 0.962997,0.9662 0.529764,0.4511 0.991817,0.91028 1.02675,1.02035 0.0349,0.11005 0.29033,1.53912 0.567676,3.17571 0.558105,3.29347 0.504153,3.14424 1.850392,5.10139 1.574129,2.28847 2.992184,4.09896 8.54076,10.78231 16.57864,2.73445 32.941212,7.58633 49.0949563,14.32612 L -24.417326,154.83183 c -6.338098,-3.74701 -14.286028,-6.96177 -24.395628,-9.16706 7.892724,0.22598 14.910304,1.17942 21.264444,2.68461 z"
           id="path837-3" />
        <path
           id="path913"
           d="m -88.205852,22.7861 -21.388098,44.274521 c 3.46272,8.267217 10.068202,16.506677 23.337481,22.192203 -12.46172,-2.038602 -21.162491,-6.67084 -27.965381,-12.612199 L -168.02352,188.0133 c 22.02107,-9.43845 43.67359,-14.73903 64.97385,-16.36712 0.0642,-0.18255 0.12093,-0.33254 0.16371,-0.42256 0.33681,-0.70886 0.63947,-1.06472 3.761006,-4.41902 0.796091,-0.85546 1.44738,-1.6214 1.44738,-1.70207 0,-0.0807 -0.6,-0.95932 -1.333653,-1.95259 l -1.333973,-1.80586 -3.12189,-0.0817 c -1.71706,-0.0449 -3.37572,-0.12852 -3.68573,-0.18613 -1.1423,-0.21229 -2.09518,-0.9094 -2.83582,-2.07432 -0.57938,-0.91129 -0.84151,-1.76162 -0.97292,-3.15521 -0.0693,-0.73497 -0.20728,-1.4694 -0.32677,-1.73955 -0.20392,-0.46098 -0.33715,-0.59135 -1.40317,-1.37466 -0.2969,-0.21816 -0.63583,-0.58586 -0.75316,-0.81691 -0.2866,-0.56431 -0.49559,-1.62455 -0.39917,-2.02499 0.10777,-0.4476 0.47856,-1.17044 0.79417,-1.54797 l 0.26301,-0.31459 -0.51513,-0.47477 c -0.56088,-0.517 -0.8525,-1.00648 -1.06103,-1.78088 -0.19122,-0.71014 -0.0959,-1.0354 0.73522,-2.50744 0.48889,-0.86588 0.73717,-1.43031 0.73747,-1.67612 3.3e-4,-0.50689 -0.51671,-1.04661 -1.69822,-1.77223 -1.19066,-0.73122 -1.42586,-1.03232 -1.41503,-1.81066 0.015,-1.07802 0.73365,-2.11981 2.92231,-4.2361 1.67104,-1.61581 1.70528,-1.69479 1.33045,-3.06103 -0.13403,-0.48856 -0.2913,-0.94572 -0.34951,-1.01586 -0.0582,-0.0701 -0.41465,-0.22109 -0.79224,-0.33541 -0.43142,-0.13063 -0.63361,-0.24061 -0.54397,-0.29601 0.0784,-0.0485 0.11878,-0.1079 0.0894,-0.13199 -0.0294,-0.0241 -0.18124,-0.13356 -0.33734,-0.24315 l -0.28384,-0.19927 0.39468,0.0814 0.39468,0.0814 -0.42319,-0.51641 c -0.52561,-0.64143 -0.53567,-0.74599 -0.0356,-0.36457 l 0.38699,0.29537 -0.21688,-0.6971 c -0.88426,-2.84115 -0.26029,-6.20327 1.9654,-10.58817 0.37422,-0.73726 0.66216,-1.35681 0.63976,-1.3769 -0.0224,-0.0201 -0.29618,-0.1696 -0.60836,-0.3319 -0.3122,-0.1623 -0.71664,-0.41989 -0.89893,-0.57248 l -0.33157,-0.27743 0.41646,-0.0782 c 0.22913,-0.043 0.41679,-0.14181 0.41679,-0.21977 0,-0.078 -0.3364,-0.545 -0.7474,-1.03764 -1.01076,-1.21158 -2.42865,-3.37689 -2.29729,-3.50825 0.0205,-0.0205 0.65002,0.52636 1.39901,1.21512 1.41265,1.29906 2.29352,1.97943 2.4107,1.86225 0.0374,-0.0374 -0.26901,-0.77034 -0.68076,-1.62871 -1.50943,-3.14651 -1.8809,-5.39844 -1.26927,-7.69085 0.24123,-0.90412 0.93891,-2.28601 1.5656,-3.10043 0.72176,-0.937979 2.72509,-3.021586 2.77142,-2.882584 0.0214,0.06413 -0.19115,0.574457 -0.47221,1.134069 -0.70141,1.396587 -0.97709,2.268895 -0.97709,3.092105 0,0.82699 0.20655,1.72491 0.38379,1.66906 0.17758,-0.056 1.67143,-2.20199 2.92199,-4.197655 0.57711,-0.920958 1.0727,-1.674514 1.10107,-1.674514 0.0284,0 0.015,0.6384 -0.0295,1.418868 -0.0445,0.780482 -0.054,1.419191 -0.0215,1.419191 0.0326,0 0.24153,-0.347372 0.46452,-0.771745 0.22301,-0.424382 0.59633,-0.968009 0.82941,-1.208393 0.43745,-0.451149 1.24731,-1.039183 1.32212,-0.959794 0.0233,0.02473 -0.0276,0.377111 -0.11341,0.782955 -0.18307,0.866653 -0.20526,2.028304 -0.0432,2.270377 0.0984,0.14707 0.13826,0.13934 0.29152,-0.0567 0.31365,-0.401243 1.03095,-1.902969 1.35544,-2.838056 0.38275,-1.103031 0.50645,-1.268132 0.50585,-0.675315 -3.3e-4,0.429389 -0.27252,2.295148 -0.42128,2.888994 -0.0517,0.206288 0.22089,-0.01514 0.99824,-0.810508 0.5882,-0.601824 1.294897,-1.207248 1.570401,-1.345505 l 0.501039,-0.251483 -0.354637,0.482141 c -0.350676,0.476851 -0.702373,1.624383 -0.54589,1.780873 0.04451,0.04451 0.218296,-0.09636 0.386353,-0.312991 0.557721,-0.718934 1.399092,-1.403739 1.995193,-1.624218 0.244036,-0.09024 0.255262,-0.144957 -0.263014,1.267019 -0.337844,0.920418 -0.445148,1.609479 -0.250521,1.609479 0.053,0 1.00802,-0.689117 2.122055,-1.531312 1.185217,-0.895999 2.404923,-1.71625 2.940251,-1.977252 0.904532,-0.440989 3.460848,-1.373059 3.765817,-1.373059 0.119199,0 0.157615,0.189863 0.157615,0.777832 0,0.427745 0.05857,0.951296 0.130066,1.163542 0.285937,0.849083 1.829111,2.692189 2.009611,2.400126 0.04755,-0.07702 0.179366,-0.497752 0.292806,-0.935126 0.113449,-0.43738 0.243223,-0.795451 0.288323,-0.795451 0.04507,0 0.530363,0.498066 1.078327,1.10684 0.547959,0.608772 1.360431,1.40451 1.805542,1.76806 0.919687,0.75118 2.988433,1.81015 4.55582,2.33221 1.412204,0.47037 4.824448,1.3956 4.995351,1.35448 0.104192,-0.0251 0.07237,-0.2681 -0.123338,-0.94218 -0.145033,-0.4995 -0.294109,-1.0298 -0.33157,-1.1786 l -0.06824,-0.27038 0.374821,0.31107 c 0.206195,0.17122 1.265599,1.13604 2.353994,2.14384 3.399409,3.14768 4.687828,4.2834 4.812427,4.24187 0.06623,-0.0221 0.273322,-0.59832 0.460357,-1.2808 0.422147,-1.54029 0.423733,-1.53645 0.743871,2.22009 0.130378,1.52973 0.305361,3.03684 0.388915,3.34903 0.353213,1.31977 1.086237,2.18086 2.064713,2.42511 1.372956,0.34272 1.778718,0.50632 2.399165,0.96684 0.703269,0.522 1.966361,1.79515 1.966361,1.98206 0,0.10983 -0.251563,0.16329 -1.448342,0.30819 l -0.596827,0.0724 0.585615,0.6987 c 0.638078,0.7615 1.232271,1.89349 1.232419,2.34791 5.1e-5,0.15783 -0.09904,0.37213 -0.220407,0.47605 -0.407431,0.34886 -0.399976,0.88267 0.05703,3.99295 0.5909,4.02191 0.590623,4.01457 0.25917,4.06151 -0.265623,0.0376 -0.265897,0.0385 -0.265897,1.79721 0,1.11071 -0.04172,1.75215 -0.113407,1.73955 -0.06245,-0.011 -0.195339,-0.0516 -0.295371,-0.0907 -0.117247,-0.0457 -0.242141,0.022 -0.351114,0.1903 -0.09296,0.14362 -0.895391,1.97239 -1.783115,4.06407 -0.887717,2.09168 -1.844162,4.28847 -2.12558,4.88162 -1.154258,2.43284 -2.407887,4.17197 -6.046769,8.38955 -0.506514,0.58707 -0.92071,1.13318 -0.92071,1.21352 0,0.0803 0.433242,0.51512 0.962997,0.9662 0.529764,0.4511 0.991817,0.91028 1.02675,1.02035 0.0349,0.11005 0.29033,1.53912 0.567676,3.17571 0.558105,3.29347 0.504153,3.14424 1.850392,5.10139 1.574129,2.28847 2.992184,4.09896 8.54076,10.78231 16.57864,2.73445 32.941212,7.58633 49.0949563,14.32612 L -24.417326,154.83183 c -6.338098,-3.74701 -14.286028,-6.96177 -24.395628,-9.16706 7.892724,0.22598 14.910304,1.17942 21.264444,2.68461 z"
           style="opacity:1;fill:#ececec;fill-opacity:1;stroke:none;stroke-width:0.8093437;stroke-miterlimit:4;stroke-dasharray:none"
           inkscape:connector-curvature="0" />
      </g>
    </g>
  </g>
</svg>
